<?xml version="1.0" encoding="utf-8"?>
<!-- Svg Vector Icons : http://www.onlinewebfonts.com/icon -->
<!DOCTYPE svg PUBLIC "-//W3C//DTD SVG 1.1//EN" "http://www.w3.org/Graphics/SVG/1.1/DTD/svg11.dtd">
<svg version="1.1" xmlns="http://www.w3.org/2000/svg" xmlns:xlink="http://www.w3.org/1999/xlink" x="0px" y="0px" viewBox="0 0 256 256" enable-background="new 0 0 256 256" xml:space="preserve">
<metadata> Svg Vector Icons : http://www.onlinewebfonts.com/icon </metadata>
<g><g><g><path fill="#000000" d="M113.8,10.5C87,14.1,63.3,25.6,44.7,44.1c-19.2,19.1-30.9,43.1-34.2,70.4c-0.7,6.1-0.7,20.6,0,26.7c5.6,46.2,36.7,84.5,80.2,98.8c12.9,4.2,23.5,5.9,37.3,5.9c13.7,0,24.4-1.7,37.1-5.8c38.7-12.7,68.5-45,77.9-84.7c4-16.7,4.1-36.6,0.3-53.7c-7.6-34.2-31.6-64.4-63.2-79.9c-10.6-5.2-19.3-8-31.7-10.4C141.4,10.2,120.8,9.6,113.8,10.5z M143.5,18c23.6,3.5,44.3,13.6,61.2,30c16.2,15.7,26.7,34.2,31.5,55.4c2.2,10.1,2.7,16.1,2.4,27.9c-0.3,10.6-0.9,15.5-3.1,24.2c-9.2,35.9-37.1,65.8-72.1,77.5c-11.6,3.8-18.9,5.1-32,5.5c-7.3,0.2-13.2,0.1-16.4-0.3c-38.5-5.1-70.6-28.1-87.1-62.5c-7.5-15.6-10.6-29.6-10.6-47.8c0-18.1,3.3-32.8,11.1-48.8c16-32.8,47.5-55.9,83.5-61.2C119.3,16.9,136.2,16.9,143.5,18z"/><path fill="#000000" d="M134.6,57.3c-0.9,1.1-11.4,18.6-23.3,39.2c-20.7,35.8-21.5,37.4-21.5,40.1c0,3.4,1.1,5,4.1,5.8c1.1,0.3,7.5,0.6,14.1,0.6c11.3,0,12.1,0.1,11.9,0.9c-0.2,0.6-2.3,12-4.8,25.4c-5.1,27.2-5.1,27.4-1.7,29.7c2.3,1.6,4.8,1.6,7,0.3c1.3-0.8,5.8-8.3,19-31.1c28.7-49.6,26.9-46.4,26.9-49c0-2.9-1.6-5-4.3-5.8c-1.1-0.3-7.5-0.6-14.2-0.6c-11.3,0-12.1-0.1-11.9-1c0.2-0.5,2.3-11.9,4.8-25.2c3-15.6,4.5-24.9,4.2-26.1c-0.4-2.9-2.4-4.6-5.8-5C136.5,55.4,136.2,55.5,134.6,57.3z M133.1,89.2c-5.6,29.6-5.3,27.6-4,29.4l1.2,1.5h14.2c11.6,0,14.1,0.1,13.9,0.7c-0.2,0.4-5.8,10.4-12.6,22.2c-6.8,11.7-15.6,27.1-19.6,34c-4,7-7.3,12.6-7.4,12.5c-0.1-0.1,1.8-10.4,4.2-22.9c5.6-29.6,5.3-27.6,4-29.4l-1.2-1.5h-14.2c-7.8,0-14.1-0.2-14.1-0.3c0-0.5,39.7-69.2,39.9-69.1C137.3,66.4,135.4,76.7,133.1,89.2z"/></g></g></g>
</svg>